{"title":"Tamasha (2015) DesiSCR XviD Mp3 {VikkyMaxx}","uid":12918508,"size":742861504,"categoryP":"video","categoryS":"movies","magnet":"?xt=urn:btih:87b46051198601f020faca2660bd83140d89d9b6&amp;dn=Tamasha+%282015%29+DesiSCR+XviD+Mp3+%7BVikkyMaxx%7D&amp;tr=udp%3A%2F%2Ftracker.leechers-paradise.org%3A6969&amp;tr=udp%3A%2F%2Fzer0day.ch%3A1337&amp;tr=udp%3A%2F%2Fopen.demonii.com%3A1337&amp;tr=udp%3A%2F%2Ftracker.coppersurfer.tk%3A6969&amp;tr=udp%3A%2F%2Fexodus.desync.com%3A6969","seeders":0,"leechers":1,"uploader":"shailendramaxx","files":20,"time":1449387209,"description":"VikkyMaxx Presents :-\r\n\r\nTamasha (2015) DesiSCR XviD Mp3 {VikkyMaxx}\r\n\r\n\r\nRatings: 7.5/10 \r\n\r\nPlot : Based in France, this unusual fairy tale unfolds the lives of a nomad and a tourist who gradually develop fondness for each other as they orchestrate 'Tamashas' all across the island.\r\n\r\nCast:  Deepika Padukone, Ranbir Kapoor, Javed Sheikh\r\n\r\nGeneral:- \r\n\r\nComplete name : Tamasha (2015) DesiSCR XviD Mp3 {VikkyMaxx}\r\nFormat : Matroska \r\nFormat version : Version 2 \r\nFile size : 697 MiB \r\nDuration : 2h 18mn \r\nOverall bit rate : 705 Kbps \r\nEncoded date : UTC 2015-11-28 04:28:23 \r\nWriting application : mkvmerge v7.7.0 ('Six Voices') 32bit built on Feb 28 2015 23:23:00 \r\nWriting library : libebml v1.3.1 + libmatroska v1.4.2 \r\nDURATION : 02:18:19.632000000 \r\nNUMBER_OF_FRAMES : 172909 \r\nNUMBER_OF_BYTES : 398382336 \r\n_STATISTICS_WRITING_APP : mkvmerge v7.7.0 ('Six Voices') 32bit built on Feb 28 2015 23:23:00 \r\n_STATISTICS_WRITING_DATE_UTC : 2015-11-28 04:28:23 \r\n_STATISTICS_TAGS : BPS DURATION NUMBER_OF_FRAMES NUMBER_OF_BYTES \r\nSource: DUS ( Thanks A Ton)\r\n\r\nVideo:-\r\n \r\nID : 1 \r\nFormat : AVC \r\nFormat/Info : Advanced Video Codec \r\nFormat profile :    \r\nFormat settings, CABAC : Yes \r\nFormat settings, ReFrames : 4 frames \r\nCodec ID : V_MPEG4/ISO/AVC \r\nDuration : 2h 18mn \r\nBit rate : 319 Kbps \r\nWidth : 640 pixels \r\nHeight : 272 pixels \r\nDisplay aspect ratio : 2.35:1 \r\nFrame rate mode : Constant \r\nFrame rate : 25.000 fps \r\nColor space : YUV \r\nChroma subsampling : 4:2:0 \r\nBit depth : 8 bits \r\nScan type : Progressive \r\nBits/(Pixel*Frame) : 0.073 \r\nStream size : 303 MiB (44%) \r\nWriting library : x264 core 146 r2538 121396c \r\nEncoding settings : cabac=1 / ref=3 / deblock=1:0:0 \r\nDefault : Yes \r\nForced : No \r\nLanguage : Hindi\r\n\r\n\r\nAudio:-\r\n \r\nID : 2 \r\nFormat : AC-3 \r\nFormat/Info : Audio Coding 3 \r\nMode extension : CM (complete main) \r\nFormat settings, Endianness : Big \r\nCodec ID : A_AC3 \r\nDuration : 2h 18mn \r\nBit rate mode : Constant \r\nBit rate : 384 Kbps \r\nChannel(s) : 2 channels \r\nChannel positions : Front: L R \r\nSampling rate : 32.0 KHz \r\nCompression mode : Lossy \r\nStream size : 380 MiB (54%) \r\nDefault : Yes \r\nForced : No \r\n\r\nSCREENS :-\r\n\r\n\r\n\r\n \nhttp://i.imgur.com/jxGkVv5.png\r\n \nhttp://i.imgur.com/y25LhLc.png\r\n \nhttp://i.imgur.com/ojtj7Ia.png\r\n \nhttp://i.imgur.com/WOGc9X1.png\r\n \nhttp://i.imgur.com/IQI9da1.png\r\n \nhttp://i.imgur.com/Nbeg5aH.png\r\n \nhttp://i.imgur.com/9450EgT.png\r\n \nhttp://i.imgur.com/uNEhstb.png\r\n \nhttp://i.imgur.com/BkUPjoM.png\r\n\r\n\r\n\r\n ********** PLEASE SEED AS LONG AS YOU CAN AFTER DOWNLOAD **********\r\n                       \r\n               ***** THANK YOU REGARDS - VikkyMaxx *****","torrent":{"xt":"urn:btih:87b46051198601f020faca2660bd83140d89d9b6","amp;dn":"Tamasha+%282015%29+DesiSCR+XviD+Mp3+%7BVikkyMaxx%7D","amp;tr":["udp%3A%2F%2Ftracker.leechers-paradise.org%3A6969","udp%3A%2F%2Fzer0day.ch%3A1337","udp%3A%2F%2Fopen.demonii.com%3A1337","udp%3A%2F%2Ftracker.coppersurfer.tk%3A6969","udp%3A%2F%2Fexodus.desync.com%3A6969"],"infoHash":"87b46051198601f020faca2660bd83140d89d9b6","infoHashBuffer":{"type":"Buffer","data":[135,180,96,81,25,134,1,240,32,250,202,38,96,189,131,20,13,137,217,182]},"announce":[],"urlList":[]}}